<?xml version="1.0" encoding="UTF-8"?>
<svg xmlns="http://www.w3.org/2000/svg" xmlns:xlink="http://www.w3.org/1999/xlink" width="384.09pt" height="106.34pt" viewBox="0 0 384.09 106.34" version="1.1">
<defs>
<clipPath id="clip1">
  <path d="M 0 0 L 384 0 L 384 106.339844 L 0 106.339844 Z M 0 0 "/>
</clipPath>
<clipPath id="clip2">
  <path d="M 0 0 L 384.089844 0 L 384.089844 106.339844 L 0 106.339844 Z M 0 0 "/>
</clipPath>
</defs>
<g id="surface1">
<g clip-path="url(#clip1)" clip-rule="nonzero">
<path style=" stroke:none;fill-rule:nonzero;fill:rgb(0%,0%,0%);fill-opacity:1;" d="M 355.023438 93.761719 L 354.898438 89.921875 C 356.84375 83.429688 357.738281 76.550781 357.574219 69.269531 C 357.410156 61.996094 357.355469 54.714844 357.441406 47.417969 L 355.15625 44.3125 L 357.84375 43.5 L 357.804688 42.21875 L 359.90625 42.160156 C 362.757813 43.3125 365.691406 43.910156 368.710938 43.976563 C 371.714844 44.027344 374.84375 43.996094 378.09375 43.863281 L 382.949219 43.003906 L 383.289063 49.402344 L 381.839844 49.503906 C 379.019531 47.914063 375.835938 46.875 372.308594 46.40625 C 368.773438 45.929688 364.980469 46.078125 360.910156 46.832031 C 359.980469 48.003906 359.683594 49.546875 360.011719 51.472656 C 360.332031 53.394531 360.554688 55.4375 360.667969 57.589844 L 361.765625 65.1875 L 382.699219 66.210938 L 382.867188 69.4375 L 380.359375 69.503906 C 378.28125 67.445313 371.902344 66.894531 361.253906 67.828125 C 361.449219 71.242188 361.171875 74.476563 360.402344 77.53125 C 359.644531 80.582031 359.152344 83.835938 358.902344 87.300781 C 362.128906 87.546875 365.359375 87.585938 368.605469 87.433594 C 371.855469 87.292969 374.824219 87.523438 377.53125 88.136719 L 380.4375 88.183594 L 380.378906 86.289063 L 381.757813 86.199219 L 384 90.472656 C 383.152344 91.378906 382.144531 91.867188 380.984375 91.921875 C 379.816406 91.972656 378.558594 92.015625 377.199219 92.054688 L 358.386719 91.648438 L 357.132813 93.640625 Z M 27.53125 60.476563 C 25.351563 59.042969 24.109375 57.160156 23.769531 54.765625 C 23.425781 52.390625 23.277344 49.609375 23.277344 46.441406 L 35.171875 41.671875 L 38.550781 53.203125 L 37.050781 57.84375 Z M 34.164063 80.414063 L 42.957031 73.503906 C 45.460938 71.171875 47.042969 67.601563 47.707031 62.789063 C 48.367188 57.996094 48.453125 52.988281 47.960938 47.8125 L 47.34375 43.042969 L 47.960938 40.539063 C 46.871094 37.867188 45.800781 35.0625 44.753906 32.152344 C 43.726563 29.222656 41.78125 26.675781 38.933594 24.496094 C 35.171875 20.730469 30.871094 18.460938 26.035156 17.671875 C 21.179688 16.878906 16.710938 16.34375 12.621094 16.109375 L 12.621094 21.371094 C 13.027344 31.320313 13.777344 41.136719 14.867188 50.828125 C 15.960938 60.519531 16.710938 70.511719 17.113281 80.777344 L 16.496094 85.785156 L 16.75 86.789063 L 17.007813 86.789063 Z M 13.863281 106.234375 L 7.101563 101.207031 L 7.101563 98.085938 C 8.773438 95.496094 9.585938 92.609375 9.542969 89.421875 C 9.5 86.253906 9.734375 83.152344 10.226563 80.15625 C 8.8125 67.941406 7.808594 55.597656 7.230469 43.105469 C 6.632813 30.613281 4.257813 18.441406 0.0859375 6.566406 L 3.082031 0.0664063 L 8.472656 0.0664063 L 12.367188 6.203125 C 17.457031 8.214844 22.933594 9.882813 28.773438 11.210938 C 34.636719 12.558594 40.433594 14.933594 46.210938 18.355469 C 49.886719 25.050781 52.582031 32.003906 54.292969 39.234375 C 56.007813 46.464844 57.3125 53.824219 58.230469 61.355469 L 51.34375 76.136719 C 48.582031 78.488281 45.867188 80.886719 43.191406 83.34375 C 40.519531 85.804688 37.609375 87.796875 34.421875 89.3125 L 18.632813 95.6875 L 17.242188 98.320313 L 18.121094 104.84375 Z M 65.726563 86.570313 L 65.726563 82.40625 C 67.882813 75.429688 69 68.003906 69.070313 60.113281 C 69.136719 52.222656 69.316406 44.332031 69.632813 36.433594 L 67.445313 33 L 70.164063 32.199219 L 70.164063 30.8125 L 72.273438 30.8125 C 75.097656 32.144531 78.019531 32.878906 81.042969 33.035156 C 84.058594 33.179688 87.195313 33.238281 90.457031 33.191406 L 95.355469 32.402344 L 95.492188 39.34375 L 94.035156 39.410156 C 91.261719 37.605469 88.097656 36.386719 84.578125 35.777344 C 81.042969 35.15625 77.238281 35.203125 73.132813 35.902344 C 72.160156 37.144531 71.8125 38.800781 72.082031 40.902344 C 72.34375 42.992188 72.5 45.214844 72.546875 47.550781 L 73.402344 55.8125 L 94.363281 57.539063 L 94.433594 61.039063 L 91.914063 61.039063 C 89.894531 58.746094 83.515625 57.957031 72.804688 58.65625 C 72.894531 62.359375 72.511719 65.859375 71.640625 69.144531 C 70.785156 72.425781 70.1875 75.9375 69.824219 79.683594 C 73.050781 80.046875 76.292969 80.179688 79.554688 80.113281 C 82.816406 80.058594 85.785156 80.398438 88.484375 81.140625 L 91.394531 81.277344 L 91.394531 79.222656 L 92.785156 79.167969 L 94.894531 83.859375 C 94.015625 84.820313 92.984375 85.316406 91.824219 85.339844 C 90.652344 85.363281 89.386719 85.375 88.019531 85.375 L 69.171875 84.378906 L 67.851563 86.503906 Z M 119.621094 60.617188 L 120.296875 59.886719 C 119.128906 55.8125 118.066406 51.785156 117.082031 47.785156 C 116.097656 43.777344 114.597656 40.199219 112.585938 37.027344 C 110.308594 40.460938 109.097656 44.28125 108.972656 48.492188 C 108.835938 52.691406 108.5 57.027344 107.964844 61.488281 L 111.179688 61.625 Z M 100.183594 84.414063 L 99.578125 83.808594 C 101.421875 77.6875 102.859375 71.316406 103.9375 64.679688 C 105.011719 58.042969 105.882813 51.410156 106.554688 44.796875 L 105.882813 42.785156 L 106.820313 34.808594 L 106.214844 32.132813 L 116.074219 29.042969 C 116.785156 34.410156 117.8125 39.671875 119.152344 44.832031 C 120.492188 49.992188 121.75 55.058594 122.90625 60.011719 C 123.71875 60.90625 124.984375 61.167969 126.726563 60.789063 C 128.476563 60.410156 129.300781 61.113281 129.207031 62.894531 L 126.667969 62.769531 L 124.585938 67.324219 L 130.613281 82.8125 L 126.128906 82.675781 L 123.511719 81.269531 L 123.511719 79.324219 L 123.910156 74.425781 L 121.441406 65.308594 L 107.828125 64.839844 L 106.75 65.847656 L 106.488281 69.335938 L 106.214844 78.179688 L 104.003906 84.550781 Z M 153.464844 86.832031 L 146.269531 82.070313 L 148.882813 81.171875 L 148.894531 76.996094 L 145.261719 36.335938 L 142.886719 36.402344 C 140.882813 36.761719 138.832031 37.066406 136.722656 37.296875 C 134.628906 37.527344 132.652344 38.691406 130.792969 40.785156 L 127.78125 32.535156 L 133.300781 32.585938 L 136.9375 33.242188 L 144.769531 31.464844 L 144.804688 27.421875 L 141.359375 20.332031 L 138.777344 18.910156 L 138.679688 16.828125 L 148.851563 14.546875 L 148.957031 16.703125 L 148.253906 29.292969 L 148.65625 30.609375 L 153.941406 30.449219 L 157.03125 29.957031 L 157 28.699219 L 159.15625 28.589844 L 164.785156 36.757813 L 159.78125 36.8125 C 159.066406 36.035156 158.140625 35.640625 156.996094 35.636719 C 155.851563 35.636719 154.730469 35.628906 153.632813 35.621094 L 149.433594 36.285156 L 149.488281 38.523438 C 150.683594 46.125 151.652344 54.191406 152.40625 62.699219 C 153.160156 71.21875 154.386719 79.261719 156.078125 86.824219 Z M 171.421875 88.203125 L 170.136719 86.914063 C 172.75 84.25 173.960938 81.007813 173.753906 77.183594 C 173.558594 73.375 173.457031 69.691406 173.457031 66.175781 L 172.929688 57.65625 L 172.246094 57.65625 L 167.121094 58.339844 L 167.34375 54.410156 L 172.402344 54.488281 L 172.851563 53.125 C 172.054688 48.851563 171.332031 44.539063 170.703125 40.1875 C 170.070313 35.851563 168.023438 31.175781 164.5625 26.207031 L 169.390625 26.207031 L 174.589844 25.898438 L 177.074219 53.882813 L 192.007813 55.09375 L 191.261719 33.894531 L 191.027344 26.800781 L 198.570313 26.800781 L 198.570313 34.496094 L 197.671875 42.570313 L 197.515625 57.730469 L 196.539063 71.609375 C 197.992188 78.792969 199.253906 83.59375 200.308594 86.011719 L 193.21875 87.675781 L 192.007813 59.535156 L 177.152344 57.730469 L 177.152344 66.859375 L 179.496094 86.464844 C 178.4375 87.625 177.152344 88.203125 175.644531 88.203125 C 174.140625 88.203125 172.726563 88.203125 171.421875 88.203125 Z M 233.144531 85.425781 C 235.339844 82.878906 236.453125 79.804688 236.453125 76.195313 C 236.453125 72.601563 236.65625 69.105469 237.097656 65.703125 L 236.453125 60.007813 L 237.097656 44.113281 L 233.050781 27.988281 L 237.457031 29.777344 L 242.597656 32.710938 C 245.652344 39.058594 249.558594 45.097656 254.308594 50.820313 C 259.054688 56.539063 263.179688 62.554688 266.65625 68.851563 L 268.773438 69.527344 L 268.773438 60.609375 L 266.109375 32.109375 L 273.460938 25.890625 L 271.625 42.988281 L 272.363281 53.480469 L 272.363281 70.28125 L 276.3125 84.15625 L 273.554688 84.746094 L 266.65625 80.332031 C 264.464844 72.675781 261.125 65.574219 256.65625 59.035156 C 252.175781 52.484375 247.503906 46.03125 242.597656 39.683594 L 241.125 39.683594 L 240.480469 42.230469 L 241.125 55.578125 L 242.238281 82.277344 Z M 296.5 66.199219 L 291.09375 63.4375 L 291.09375 59 L 299.347656 56.125 L 300.800781 64.792969 Z M 299.691406 76.433594 C 301.855469 74.652344 303.640625 72.535156 305.023438 70.066406 C 306.410156 67.589844 307.734375 65.261719 308.976563 63.070313 L 308.976563 57.175781 C 307.734375 54.972656 306.195313 52.765625 304.363281 50.539063 C 302.539063 48.308594 300.546875 46.371094 298.367188 44.695313 L 293.390625 44.695313 C 292.183594 45.53125 290.929688 46.492188 289.605469 47.589844 C 288.292969 48.683594 287.429688 49.84375 287.015625 51.0625 L 283.679688 65.886719 L 285.5625 74.394531 C 287.265625 75.722656 289.203125 76.691406 291.378906 77.316406 C 293.542969 77.949219 295.695313 78.046875 297.824219 77.628906 Z M 292.417969 80.503906 L 281.953125 75.703125 C 280.109375 72.84375 279.269531 69.585938 279.460938 65.914063 C 279.648438 62.246094 279.730469 58.566406 279.730469 54.878906 L 289.4375 41.824219 L 295.398438 39.476563 C 299.136719 41.460938 302.386719 43.820313 305.167969 46.546875 C 307.933594 49.28125 310.5 52.265625 312.855469 55.5 L 313.621094 62.546875 C 312.605469 64.808594 311.742188 67.324219 311.058594 70.09375 C 310.355469 72.855469 309.09375 75.214844 307.238281 77.164063 C 304.835938 78.519531 302.472656 79.421875 300.140625 79.847656 C 297.8125 80.285156 295.234375 80.503906 292.417969 80.503906 Z M 330.636719 80.585938 L 324.496094 75.394531 L 327.1875 75.128906 L 327.933594 71.710938 L 331.5625 37.78125 L 329.25 37.40625 C 327.238281 37.339844 325.199219 37.21875 323.117188 37.03125 C 321.042969 36.84375 318.921875 37.4375 316.753906 38.820313 L 315.28125 31.527344 L 320.621094 32.558594 L 324.035156 33.75 L 331.941406 33.703125 L 332.6875 30.402344 L 330.59375 23.976563 L 328.339844 22.347656 L 328.609375 20.628906 L 338.875 20.589844 L 338.601563 22.375 L 335.699219 32.554688 L 335.859375 33.703125 L 341.011719 34.523438 L 344.101563 34.675781 L 344.289063 33.636719 L 346.402344 33.9375 L 350.421875 41.632813 L 345.558594 40.78125 C 345.003906 40.015625 344.175781 39.527344 343.066406 39.316406 C 341.953125 39.109375 340.867188 38.902344 339.808594 38.699219 L 335.617188 38.488281 L 335.277344 40.328125 C 335.101563 46.765625 334.621094 53.542969 333.855469 60.644531 C 333.089844 67.75 332.859375 74.554688 333.171875 81.046875 L 330.636719 80.585938 "/>
</g>
<g clip-path="url(#clip2)" clip-rule="nonzero">
<path style="fill:none;stroke-width:1.72822;stroke-linecap:butt;stroke-linejoin:miter;stroke:rgb(0%,0%,0%);stroke-opacity:1;stroke-miterlimit:10;" d="M 3550.234375 125.782813 L 3548.984375 164.18125 C 3568.4375 229.103125 3577.382813 297.892188 3575.742188 370.704688 C 3574.101563 443.439063 3573.554688 516.251563 3574.414063 589.220313 L 3551.5625 620.275 L 3578.4375 628.4 L 3578.046875 641.2125 L 3599.0625 641.798438 C 3627.578125 630.275 3656.914063 624.298438 3687.109375 623.634375 C 3717.148438 623.126563 3748.4375 623.439063 3780.9375 624.767188 L 3829.492188 633.360938 L 3832.890625 569.376563 L 3818.398438 568.360938 C 3790.195313 584.259375 3758.359375 594.65 3723.085938 599.3375 C 3687.734375 604.103125 3649.804688 602.61875 3609.101563 595.079688 C 3599.804688 583.360938 3596.835938 567.93125 3600.117188 548.673438 C 3603.320313 529.454688 3605.546875 509.025 3606.679688 487.501563 L 3617.65625 411.525 L 3826.992188 401.290625 L 3828.671875 369.025 L 3803.59375 368.360938 C 3782.8125 388.946875 3719.023438 394.454688 3612.539063 385.11875 C 3614.492188 350.978125 3611.71875 318.634375 3604.023438 288.0875 C 3596.445313 257.579688 3591.523438 225.040625 3589.023438 190.392188 C 3621.289063 187.93125 3653.59375 187.540625 3686.054688 189.064063 C 3718.554688 190.470313 3748.242188 188.165625 3775.3125 182.032813 L 3804.375 181.564063 L 3803.789063 200.509375 L 3817.578125 201.407813 L 3840 158.673438 C 3831.523438 149.610938 3821.445313 144.728125 3809.84375 144.18125 C 3798.164063 143.673438 3785.585938 143.24375 3771.992188 142.853125 L 3583.867188 146.915625 L 3571.328125 126.99375 Z M 275.3125 458.634375 C 253.515625 472.970313 241.09375 491.798438 237.695313 515.74375 C 234.257813 539.49375 232.773438 567.30625 232.773438 598.985938 L 351.71875 646.68125 L 385.507813 531.36875 L 370.507813 484.9625 Z M 341.640625 259.259375 L 429.570313 328.360938 C 454.609375 351.68125 470.429688 387.384375 477.070313 435.509375 C 483.671875 483.439063 484.53125 533.517188 479.609375 585.275 L 473.4375 632.970313 L 479.609375 658.009375 C 468.710938 684.728125 458.007813 712.775 447.539063 741.876563 C 437.265625 771.173438 417.8125 796.642188 389.335938 818.439063 C 351.71875 856.095313 308.710938 878.790625 260.351563 886.68125 C 211.796875 894.610938 167.109375 899.9625 126.210938 902.30625 L 126.210938 849.689063 C 130.273438 750.196875 137.773438 652.032813 148.671875 555.11875 C 159.609375 458.204688 167.109375 358.282813 171.132813 255.626563 L 164.960938 205.548438 L 167.5 195.509375 L 170.078125 195.509375 Z M 138.632813 1.05625 L 71.015625 51.329688 L 71.015625 82.540625 C 87.734375 108.439063 95.859375 137.30625 95.429688 169.18125 C 95 200.860938 97.34375 231.876563 102.265625 261.8375 C 88.125 383.985938 78.085938 507.423438 72.304688 632.345313 C 66.328125 757.267188 42.578125 878.985938 0.859375 997.735938 L 30.820313 1062.735938 L 84.726563 1062.735938 L 123.671875 1001.36875 C 174.570313 981.251563 229.335938 964.571875 287.734375 951.290625 C 346.367188 937.814063 404.335938 914.064063 462.109375 879.845313 C 498.867188 812.892188 525.820313 743.360938 542.929688 671.05625 C 560.078125 598.751563 573.125 525.157813 582.304688 449.845313 L 513.4375 302.032813 C 485.820313 278.517188 458.671875 254.532813 431.914063 229.9625 C 405.195313 205.353125 376.09375 185.43125 344.21875 170.275 L 186.328125 106.525 L 172.421875 80.196875 L 181.210938 14.9625 Z M 657.265625 197.696875 L 657.265625 239.3375 C 678.828125 309.103125 690 383.360938 690.703125 462.267188 C 691.367188 541.173438 693.164063 620.079688 696.328125 699.064063 L 674.453125 733.4 L 701.640625 741.407813 L 701.640625 755.275 L 722.734375 755.275 C 750.976563 741.954688 780.195313 734.610938 810.429688 733.048438 C 840.585938 731.603125 871.953125 731.017188 904.570313 731.485938 L 953.554688 739.376563 L 954.921875 669.9625 L 940.351563 669.298438 C 912.617188 687.345313 880.976563 699.532813 845.78125 705.626563 C 810.429688 711.8375 772.382813 711.36875 731.328125 704.376563 C 721.601563 691.954688 718.125 675.392188 720.820313 654.376563 C 723.4375 633.478125 725 611.251563 725.46875 587.892188 L 734.023438 505.275 L 943.632813 488.009375 L 944.335938 453.009375 L 919.140625 453.009375 C 898.945313 475.939063 835.15625 483.829688 728.046875 476.8375 C 728.945313 439.80625 725.117188 404.80625 716.40625 371.954688 C 707.851563 339.142188 701.875 304.025 698.242188 266.564063 C 730.507813 262.93125 762.929688 261.603125 795.546875 262.267188 C 828.164063 262.814063 857.851563 259.415625 884.84375 251.99375 L 913.945313 250.626563 L 913.945313 271.173438 L 927.851563 271.720313 L 948.945313 224.80625 C 940.15625 215.196875 929.84375 210.235938 918.242188 210.001563 C 906.523438 209.767188 893.867188 209.65 880.195313 209.65 L 691.71875 219.610938 L 678.515625 198.360938 Z M 1196.210938 457.228125 L 1202.96875 464.532813 C 1191.289063 505.275 1180.664063 545.548438 1170.820313 585.548438 C 1160.976563 625.626563 1145.976563 661.407813 1125.859375 693.126563 C 1103.085938 658.790625 1090.976563 620.5875 1089.726563 578.478125 C 1088.359375 536.485938 1085 493.126563 1079.648438 448.517188 L 1111.796875 447.15 Z M 1001.835938 219.259375 L 995.78125 225.314063 C 1014.21875 286.525 1028.59375 350.235938 1039.375 416.603125 C 1050.117188 482.970313 1058.828125 549.298438 1065.546875 615.43125 L 1058.828125 635.548438 L 1068.203125 715.314063 L 1062.148438 742.071875 L 1160.742188 772.970313 C 1167.851563 719.298438 1178.125 666.68125 1191.523438 615.079688 C 1204.921875 563.478125 1217.5 512.814063 1229.0625 463.282813 C 1237.1875 454.3375 1249.84375 451.720313 1267.265625 455.509375 C 1284.765625 459.298438 1293.007813 452.267188 1292.070313 434.454688 L 1266.679688 435.704688 L 1245.859375 390.157813 L 1306.132813 235.275 L 1261.289063 236.642188 L 1235.117188 250.704688 L 1235.117188 270.157813 L 1239.101563 319.142188 L 1214.414063 410.314063 L 1078.28125 415.001563 L 1067.5 404.923438 L 1064.882813 370.040625 L 1062.148438 281.603125 L 1040.039063 217.892188 Z M 1534.648438 195.079688 L 1462.695313 242.696875 L 1488.828125 251.68125 L 1488.945313 293.439063 L 1452.617188 700.040625 L 1428.867188 699.376563 C 1408.828125 695.782813 1388.320313 692.735938 1367.226563 690.43125 C 1346.289063 688.126563 1326.523438 676.485938 1307.929688 655.548438 L 1277.8125 738.048438 L 1333.007813 737.540625 L 1369.375 730.978125 L 1447.695313 748.751563 L 1448.046875 789.18125 L 1413.59375 860.079688 L 1387.773438 874.298438 L 1386.796875 895.11875 L 1488.515625 917.93125 L 1489.570313 896.36875 L 1482.539063 770.470313 L 1486.5625 757.30625 L 1539.414063 758.907813 L 1570.3125 763.829688 L 1570 776.407813 L 1591.5625 777.501563 L 1647.851563 695.821875 L 1597.8125 695.275 C 1590.664063 703.048438 1581.40625 706.99375 1569.960938 707.032813 C 1558.515625 707.032813 1547.304688 707.110938 1536.328125 707.189063 L 1494.335938 700.548438 L 1494.882813 678.165625 C 1506.835938 602.15 1516.523438 521.485938 1524.0625 436.407813 C 1531.601563 351.2125 1543.867188 270.782813 1560.78125 195.157813 Z M 1714.21875 181.36875 L 1701.367188 194.259375 C 1727.5 220.9 1739.609375 253.321875 1737.539063 291.564063 C 1735.585938 329.65 1734.570313 366.485938 1734.570313 401.642188 L 1729.296875 486.8375 L 1722.460938 486.8375 L 1671.210938 480.001563 L 1673.4375 519.298438 L 1724.023438 518.517188 L 1728.515625 532.15 C 1720.546875 574.884375 1713.320313 618.009375 1707.03125 661.525 C 1700.703125 704.884375 1680.234375 751.642188 1645.625 801.329688 L 1693.90625 801.329688 L 1745.898438 804.415625 L 1770.742188 524.571875 L 1920.078125 512.4625 L 1912.617188 724.454688 L 1910.273438 795.392188 L 1985.703125 795.392188 L 1985.703125 718.439063 L 1976.71875 637.696875 L 1975.15625 486.095313 L 1965.390625 347.30625 C 1979.921875 275.470313 1992.539063 227.4625 2003.085938 203.282813 L 1932.1875 186.642188 L 1920.078125 468.048438 L 1771.523438 486.095313 L 1771.523438 394.80625 L 1794.960938 198.751563 C 1784.375 187.15 1771.523438 181.36875 1756.445313 181.36875 C 1741.40625 181.36875 1727.265625 181.36875 1714.21875 181.36875 Z M 2331.445313 209.142188 C 2353.398438 234.610938 2364.53125 265.353125 2364.53125 301.446875 C 2364.53125 337.384375 2366.5625 372.345313 2370.976563 406.36875 L 2364.53125 463.321875 L 2370.976563 622.267188 L 2330.507813 783.517188 L 2374.570313 765.626563 L 2425.976563 736.290625 C 2456.523438 672.814063 2495.585938 612.423438 2543.085938 555.196875 C 2590.546875 498.009375 2631.796875 437.853125 2666.5625 374.884375 L 2687.734375 368.126563 L 2687.734375 457.30625 L 2661.09375 742.30625 L 2734.609375 804.49375 L 2716.25 633.517188 L 2723.632813 528.595313 L 2723.632813 360.5875 L 2763.125 221.8375 L 2735.546875 215.939063 L 2666.5625 260.079688 C 2644.648438 336.642188 2611.25 407.657813 2566.5625 473.048438 C 2521.757813 538.55625 2475.039063 603.0875 2425.976563 666.564063 L 2411.25 666.564063 L 2404.804688 641.095313 L 2411.25 507.61875 L 2422.382813 240.626563 Z M 2965 401.407813 L 2910.9375 429.025 L 2910.9375 473.4 L 2993.476563 502.15 L 3008.007813 415.470313 Z M 2996.914063 299.064063 C 3018.554688 316.876563 3036.40625 338.048438 3050.234375 362.735938 C 3064.101563 387.501563 3077.34375 410.782813 3089.765625 432.696875 L 3089.765625 491.642188 C 3077.34375 513.673438 3061.953125 535.74375 3043.632813 558.009375 C 3025.390625 580.314063 3005.46875 599.689063 2983.671875 616.446875 L 2933.90625 616.446875 C 2921.835938 608.0875 2909.296875 598.478125 2896.054688 587.501563 C 2882.929688 576.564063 2874.296875 564.9625 2870.15625 552.775 L 2836.796875 404.532813 L 2855.625 319.454688 C 2872.65625 306.173438 2892.03125 296.485938 2913.789063 290.235938 C 2935.429688 283.907813 2956.953125 282.93125 2978.242188 287.110938 Z M 2924.179688 258.360938 L 2819.53125 306.36875 C 2801.09375 334.9625 2792.695313 367.540625 2794.609375 404.259375 C 2796.484375 440.939063 2797.304688 477.735938 2797.304688 514.610938 L 2894.375 645.157813 L 2953.984375 668.634375 C 2991.367188 648.790625 3023.867188 625.196875 3051.679688 597.93125 C 3079.335938 570.5875 3105 540.74375 3128.554688 508.4 L 3136.210938 437.93125 C 3126.054688 415.314063 3117.421875 390.157813 3110.585938 362.4625 C 3103.554688 334.845313 3090.9375 311.251563 3072.382813 291.759375 C 3048.359375 278.204688 3024.726563 269.18125 3001.40625 264.923438 C 2978.125 260.548438 2952.34375 258.360938 2924.179688 258.360938 Z M 3306.367188 257.540625 L 3244.960938 309.454688 L 3271.875 312.110938 L 3279.335938 346.290625 L 3315.625 685.5875 L 3292.5 689.3375 C 3272.382813 690.001563 3251.992188 691.2125 3231.171875 693.0875 C 3210.429688 694.9625 3189.21875 689.025 3167.539063 675.196875 L 3152.8125 748.126563 L 3206.210938 737.814063 L 3240.351563 725.9 L 3319.414063 726.36875 L 3326.875 759.376563 L 3305.9375 823.634375 L 3283.398438 839.923438 L 3286.09375 857.110938 L 3388.75 857.501563 L 3386.015625 839.65 L 3356.992188 737.853125 L 3358.59375 726.36875 L 3410.117188 718.165625 L 3441.015625 716.642188 L 3442.890625 727.032813 L 3464.023438 724.025 L 3504.21875 647.071875 L 3455.585938 655.5875 C 3450.039063 663.24375 3441.757813 668.126563 3430.664063 670.235938 C 3419.53125 672.30625 3408.671875 674.376563 3398.085938 676.407813 L 3356.171875 678.517188 L 3352.773438 660.11875 C 3351.015625 595.74375 3346.210938 527.970313 3338.554688 456.954688 C 3330.898438 385.9 3328.59375 317.853125 3331.71875 252.93125 Z M 3306.367188 257.540625 " transform="matrix(0.1,0,0,-0.1,0,106.34)"/>
</g>
</g>
</svg>
